<svg xmlns="http://www.w3.org/2000/svg" xmlns:xlink="http://www.w3.org/1999/xlink" width="37" height="37" viewBox="0 0 37 37"><defs><style>.a{fill:url(#a);}.b{fill:none;}.c{fill:#fff;}</style><linearGradient id="a" x1="0.5" x2="0.5" y2="3.865" gradientUnits="objectBoundingBox"><stop offset="0" stop-color="#075db2"/><stop offset="1" stop-color="#036"/></linearGradient></defs><g transform="translate(-32 -439)"><rect class="a" width="37" height="37" rx="5" transform="translate(32 439)"/><g transform="translate(39 445)"><path class="b" d="M0,0H24V24H0Z"/><path class="c" d="M9.33,11.5H11.5A4.5,4.5,0,0,1,16,16H9v1h8V16a5.578,5.578,0,0,0-.886-3H19a5,5,0,0,1,4.516,2.851A13.154,13.154,0,0,1,13,21a14.481,14.481,0,0,1-7-1.625v-9.3A6.967,6.967,0,0,1,9.33,11.5ZM5,19a1,1,0,0,1-1,1H2a1,1,0,0,1-1-1V10A1,1,0,0,1,2,9H4a1,1,0,0,1,1,1ZM18,5a3,3,0,1,1-3,3A3,3,0,0,1,18,5ZM11,2A3,3,0,1,1,8,5,3,3,0,0,1,11,2Z"/></g></g></svg>