<svg xmlns="http://www.w3.org/2000/svg" width="53" height="53" viewBox="0 0 53 53"><defs><style>.a,.b{fill:#fc4747;}.a{opacity:0.1;}</style></defs><circle class="a" cx="26.5" cy="26.5" r="26.5"/><path class="b" d="M.974,18.917V15.43H4.05V13.106H.974V9.62H4.05V1.81H9.57l4.443,7.81H19.6V1.81h4.9V9.62h2.786v3.486H24.507V15.43h2.786v3.486H24.507V27H19.243l-4.648-8.083H8.955V27H4.05V18.917ZM8.955,15.43h3.623l-1.333-2.324H8.955Zm8.374,0H19.6V13.106H16.013ZM8.955,9.62h.291l-.291-.513ZM19.6,19.4v-.479h-.273Z" transform="matrix(1, -0.017, 0.017, 1, 11.994, 12.667)"/></svg>