<svg xmlns="http://www.w3.org/2000/svg" width="17.304" height="17.304" viewBox="0 0 17.304 17.304"><defs><style>.a{fill:#036;}</style></defs><path class="a" d="M18.367-31.117h-.787l-.272-.272a6.37,6.37,0,0,0,1.553-4.18A6.431,6.431,0,0,0,12.431-42,6.431,6.431,0,0,0,6-35.569a6.431,6.431,0,0,0,6.431,6.431,6.392,6.392,0,0,0,4.18-1.548l.272.272v.782L21.83-24.7,23.3-26.17Zm-5.936,0a4.453,4.453,0,0,1-4.452-4.452,4.453,4.453,0,0,1,4.452-4.452,4.453,4.453,0,0,1,4.452,4.452A4.453,4.453,0,0,1,12.431-31.117Z" transform="translate(-6 42)"/></svg>