<svg id="Component_12_1" data-name="Component 12 – 1" xmlns="http://www.w3.org/2000/svg" width="197.96" height="44.09" viewBox="0 0 197.96 44.09">
  <g id="Group_4644" data-name="Group 4644">
    <path id="Path_60324" data-name="Path 60324" d="M38.59,281.66a22.045,22.045,0,1,1-22.08,22.045A22.045,22.045,0,0,1,38.59,281.66" transform="translate(-16.51 -281.66)" fill="#eb2232" fill-rule="evenodd"/>
    <path id="Path_60325" data-name="Path 60325" d="M59.836,337.869h0v-4.152l5.268.034c2.537.017,3.772,2.045,3.772,4.164,0,5.859-9.025,7.115-9.034-.046m0-11.013h0c9.717-5.1,10.575,6.1,4.707,5.568h-4.73Zm8.467,6.08c6.966-2.668,1.144-13.054-10.258-6.629A8.888,8.888,0,0,0,54,324.446c-2.817-.572-6.594-.074-8.713,1.9l1.024,1a7.641,7.641,0,0,1,8.093-1.193,3.282,3.282,0,0,1,1.784,2.2l.051,9.543h0c-.418,6.629-8.956,6.117-8.954,0v-4.186H54v-1.264H43.75v4.121c.026,7.833,9.554,9.151,14.273,5.339a10.512,10.512,0,0,0,6.692,2.059c8.459-.057,10.2-9.18,3.572-11.035Z" transform="translate(-35.82 -311.968)" fill="#fff" fill-rule="evenodd"/>
  </g>
  <path id="Path_75348" data-name="Path 75348" d="M6.3-.27c0,.21.06.3.27.27H9.66c.15,0,.24-.09.24-.27V-16.44h6.06c.15,0,.24-.09.21-.27l-.27-2.73c-.03-.21-.12-.27-.3-.27H.69c-.18,0-.24.06-.27.24L.03-16.68c-.03.15.03.24.18.24H6.3Zm17.97-6.3a22.851,22.851,0,0,0,3.09-.12.258.258,0,0,0,.24-.21,9.08,9.08,0,0,0,.12-1.86c0-2.85-1.71-6.33-6.15-6.33-4.53,0-7.05,3.69-7.05,7.86C14.52-3.54,16.47.3,21.93.3a9.961,9.961,0,0,0,4.5-.87.318.318,0,0,0,.18-.33V-3.39c0-.15-.09-.18-.18-.12a9.453,9.453,0,0,1-3.72.72c-3.06,0-4.44-1.68-4.53-3.78ZM18.18-9.15a3.277,3.277,0,0,1,3.24-3.06A2.775,2.775,0,0,1,24.3-9.42v.24a14.7,14.7,0,0,1-1.65.03ZM30.42-3.57C30.42-.42,31.98.3,33.9.3A4.374,4.374,0,0,0,35.61.06c.15-.09.18-.12.18-.33V-2.52c0-.15-.03-.21-.12-.18a3.825,3.825,0,0,1-.57.03c-.72,0-1.05-.3-1.05-1.23V-21.12c0-.15-.09-.24-.27-.24H30.69c-.18,0-.27.09-.27.24Zm7.95,0C38.37-.42,39.93.3,41.85.3A4.374,4.374,0,0,0,43.56.06c.15-.09.18-.12.18-.33V-2.52c0-.15-.03-.21-.12-.18a3.825,3.825,0,0,1-.57.03c-.72,0-1.05-.3-1.05-1.23V-21.12c0-.15-.09-.24-.27-.24H38.64c-.18,0-.27.09-.27.24Zm16.77-3a22.851,22.851,0,0,0,3.09-.12.258.258,0,0,0,.24-.21,9.08,9.08,0,0,0,.12-1.86c0-2.85-1.71-6.33-6.15-6.33-4.53,0-7.05,3.69-7.05,7.86C45.39-3.54,47.34.3,52.8.3a9.961,9.961,0,0,0,4.5-.87.318.318,0,0,0,.18-.33V-3.39c0-.15-.09-.18-.18-.12a9.453,9.453,0,0,1-3.72.72c-3.06,0-4.44-1.68-4.53-3.78ZM49.05-9.15a3.277,3.277,0,0,1,3.24-3.06,2.775,2.775,0,0,1,2.88,2.79v.24a14.7,14.7,0,0,1-1.65.03Zm12.36-5.64c-.15,0-.18.03-.18.18.12.99.15,2.73.15,4.02V-.24c0,.15.06.24.27.24h3.12c.18,0,.27-.06.27-.24V-9.9a5.829,5.829,0,0,1,4.59-1.59c.21,0,.27-.06.27-.21v-3.18c0-.18-.06-.21-.24-.21a6.25,6.25,0,0,0-4.8,2.34,6.781,6.781,0,0,0-.3-1.8.3.3,0,0,0-.33-.24Zm24.24-4.68c-.06-.18-.09-.24-.24-.24H81.93a.268.268,0,0,0-.3.24C79.32-9.66,78.42-6.36,78.06-4.41h-.03c-.24-1.65-.78-4.38-3.33-15.09-.03-.21-.15-.21-.3-.21H71.01c-.15,0-.21.06-.18.24L75.84-.24c.09.15.15.24.33.24h3.18c.21,0,.27-.12.3-.27.96-3.66,3.3-12.33,3.84-15.36h.03c.6,2.97,2.61,11.55,3.51,15.45.06.12.09.18.3.18h3.24c.18,0,.24-.03.3-.18l5.07-19.26c.03-.18-.03-.27-.21-.27H92.58a.273.273,0,0,0-.3.24C90.18-10.05,89.4-6.06,89.1-4.38h-.03C88.26-8.49,86.82-14.52,85.65-19.47Zm18.06,4.38c-4.5,0-7.29,3.45-7.29,7.71,0,3.81,2.22,7.68,7.23,7.68,4.23,0,7.2-3.12,7.2-7.77C110.85-11.58,108.33-15.09,103.71-15.09Zm-.18,3.03c2.55,0,3.63,2.19,3.63,4.68,0,3.09-1.59,4.62-3.45,4.62-2.28,0-3.63-1.92-3.63-4.68C100.08-10.29,101.52-12.06,103.53-12.06Zm10.17-2.73c-.15,0-.18.03-.18.18.12.99.15,2.73.15,4.02V-.24c0,.15.06.24.27.24h3.12c.18,0,.27-.06.27-.24V-9.9a5.829,5.829,0,0,1,4.59-1.59c.21,0,.27-.06.27-.21v-3.18c0-.18-.06-.21-.24-.21a6.25,6.25,0,0,0-4.8,2.34,6.781,6.781,0,0,0-.3-1.8.3.3,0,0,0-.33-.24ZM124.41-3.57c0,3.15,1.56,3.87,3.48,3.87A4.374,4.374,0,0,0,129.6.06c.15-.09.18-.12.18-.33V-2.52c0-.15-.03-.21-.12-.18a3.825,3.825,0,0,1-.57.03c-.72,0-1.05-.3-1.05-1.23V-21.12c0-.15-.09-.24-.27-.24h-3.09c-.18,0-.27.09-.27.24ZM139.11.3a14.226,14.226,0,0,0,5.67-1.17.234.234,0,0,0,.18-.27c-.06-.54-.12-1.32-.12-1.92V-21.18c0-.12,0-.18-.15-.18h-3.27c-.12,0-.18.06-.18.21V-15a10.381,10.381,0,0,0-1.29-.09c-5.28,0-8.52,3.48-8.52,7.83C131.43-2.22,134.76.3,139.11.3Zm2.13-3.36a5.548,5.548,0,0,1-1.74.24c-2.4,0-4.35-1.35-4.35-4.62a4.392,4.392,0,0,1,4.68-4.62,3.989,3.989,0,0,1,1.41.21Z" transform="translate(53 33)" fill="#242e64"/>
</svg>
