<svg xmlns="http://www.w3.org/2000/svg" width="285" height="61.162" viewBox="0 0 285 61.162"><defs><style>.a{fill:#eb2232;}.a,.b{fill-rule:evenodd;}.b{fill:#fff;}.c{fill:#242e64;font-size:43px;font-family:AdobeClean-Bold, Adobe Clean;font-weight:700;}</style></defs><g transform="translate(0 0)"><g transform="translate(17682 4699)"><path class="a" d="M47.138,281.66A30.581,30.581,0,1,1,16.51,312.241,30.581,30.581,0,0,1,47.138,281.66" transform="translate(-17698.51 -4980.66)"/><path class="b" d="M66.064,343.152h0v-5.76l7.307.048c3.519.024,5.232,2.836,5.232,5.776,0,8.128-12.52,9.87-12.531-.064m0-15.277h0c13.48-7.073,14.67,8.465,6.53,7.724H66.04Zm11.746,8.434c9.663-3.7,1.587-18.109-14.229-9.2a12.329,12.329,0,0,0-5.621-2.582c-3.907-.793-9.148-.1-12.087,2.642l1.42,1.392c2.5-2.578,8.009-3.408,11.226-1.654A4.553,4.553,0,0,1,61,329.962l.071,13.237h0c-.579,9.2-12.424,8.485-12.42,0v-5.807h9.314v-1.753H43.75v5.716c.036,10.865,13.253,12.694,19.8,7.406,1.88,1.718,5.581,2.88,9.283,2.856,11.734-.079,14.15-12.734,4.955-15.308Z" transform="translate(-17714.75 -5006.224)"/></g><text class="c" transform="translate(74 48)"><tspan x="0" y="0">TellerWorld</tspan></text></g></svg>