<svg xmlns="http://www.w3.org/2000/svg" width="37" height="37" viewBox="0 0 37 37">
  <g id="Group_6085" data-name="Group 6085" transform="translate(-32 -273)">
    <rect id="Rectangle_1760" data-name="Rectangle 1760" width="37" height="37" rx="5" transform="translate(32 273)" fill="#beccdc" opacity="0.1"/>
    <path id="Cash_Transaction_stroke_icon" data-name="Cash Transaction_stroke_icon" d="M.394,26.279A1.333,1.333,0,0,1,0,25.333L0,6.666A1.338,1.338,0,0,1,1.346,5.333H5.333v-4A1.333,1.333,0,0,1,6.666,0h16A1.334,1.334,0,0,1,24,1.333V20a1.334,1.334,0,0,1-1.334,1.334h-4v4a1.338,1.338,0,0,1-1.343,1.334H1.336A1.336,1.336,0,0,1,.394,26.279ZM2.667,24H16V8H2.67ZM8,5.333H18.667V18.667h2.667v-16H8ZM5.521,17.778,4.286,17.8l-.024-1.4L5.5,16.378l-.016-.932-1.235.022-.024-1.4,1.234-.022L5.4,10.913l2.215-.039,1.838,3.1,2.243-.04L11.642,10.8l1.968-.034.055,3.134,1.118-.02.024,1.4-1.118.02.016.932,1.118-.02.025,1.4-1.119.02.057,3.244-2.112.037L9.752,17.7l-2.264.04.057,3.244-1.968.034Zm6.131-.107.113.19,0-.192Zm-4.2-2.259.016.932,1.454-.025L8.367,15.4Zm2.832-.049.544.923.912-.016-.016-.932Zm-2.858-1.35.117,0-.121-.2Z" transform="translate(39 278)" fill="#beccdc"/>
  </g>
</svg>
