<svg xmlns="http://www.w3.org/2000/svg" width="53" height="53" viewBox="0 0 53 53">
  <g id="Group_4520" data-name="Group 4520" transform="translate(0 -0.329)">
    <circle id="Ellipse_204" data-name="Ellipse 204" cx="26.5" cy="26.5" r="26.5" transform="translate(0 0.329)" fill="#fec100" opacity="0.2"/>
    <path id="Path_75347" data-name="Path 75347" d="M16.415-4.34a6.817,6.817,0,0,1-6.02-3.045h6.37l.805-3.185H9.2A5.542,5.542,0,0,1,9.1-11.9l.035-.665H17.99l.84-3.185H10.01a6.968,6.968,0,0,1,6.405-3.71,6.326,6.326,0,0,1,6.545,5.285h5.215a12.083,12.083,0,0,0-3.955-7.35,11.425,11.425,0,0,0-7.77-2.765,12.382,12.382,0,0,0-7.49,2.345A11.979,11.979,0,0,0,4.55-15.75H1.365v3.185H3.99v.665c0,.315.035.77.07,1.33H1.365v3.185h3.4a11.56,11.56,0,0,0,4.48,5.74A12.565,12.565,0,0,0,16.45.49a11.425,11.425,0,0,0,7.77-2.765,12.083,12.083,0,0,0,3.955-7.35H22.96A6.326,6.326,0,0,1,16.415-4.34Z" transform="matrix(1, -0.017, 0.017, 1, 11.576, 39.519)" fill="#fec100"/>
  </g>
</svg>
