<svg xmlns="http://www.w3.org/2000/svg" width="180" height="180" viewBox="0 0 180 180"><defs><style>.a{fill:#f3f4f8;stroke:#d3d6e6;}.b{fill:none;}.c{fill:#d3d6e6;}.d{stroke:none;}</style></defs><g transform="translate(-909 -481)"><g class="a" transform="translate(910 482)"><rect class="d" width="178" height="178" rx="10"/><rect class="b" x="-0.5" y="-0.5" width="179" height="179" rx="10.5"/></g><g transform="translate(938.838 511.832)"><path class="b" d="M0,0H119.286V119.286H0Z"/><path class="c" d="M50.384,80.512c20,0,37.484,8.244,47,20.544l-10.058,4.559C79.58,96.821,65.929,90.98,50.384,90.98s-29.2,5.841-36.938,14.635L3.394,101.051C12.906,88.75,30.389,80.512,50.384,80.512ZM50.384,2c15.078,0,27.3,11.717,27.3,26.171v15.7c0,14.454-12.223,26.171-27.3,26.171s-27.3-11.717-27.3-26.171v-15.7C23.083,13.717,35.306,2,50.384,2Z" transform="translate(9.258 5.455)"/></g></g></svg>