<svg id="Group_4520" data-name="Group 4520" xmlns="http://www.w3.org/2000/svg" width="53" height="53" viewBox="0 0 53 53">
  <circle id="Ellipse_204" data-name="Ellipse 204" cx="26.5" cy="26.5" r="26.5" fill="#71c016" opacity="0.2"/>
  <path id="Path_75346" data-name="Path 75346" d="M7.91,28.8V23.445H14.6V19.35H7.91V17.18c0-2.555,1.575-4.2,3.92-4.2a3.66,3.66,0,0,1,3.815,3.045h4.9c-.525-4.48-3.85-7.315-8.715-7.315a8.726,8.726,0,0,0-6.37,2.345A8.172,8.172,0,0,0,3.08,17.18v2.17H1.05v4.095H3.08V28.8H1.05V33H20.09V28.8Z" transform="matrix(1, -0.017, 0.017, 1, 12.758, 5.506)" fill="#71c016"/>
</svg>
